<svg width="21" height="23" viewBox="0 0 21 23" fill="none" xmlns="http://www.w3.org/2000/svg">
<path d="M20.4272 19.4899L15.3825 14.4912C16.559 13.0295 17.2627 11.179 17.2627 9.16841C17.2627 8.32749 16.5747 7.64584 15.7261 7.64584C14.8774 7.64584 14.1895 8.32749 14.1895 9.16841C14.1895 12.2057 11.6962 14.6762 8.63093 14.6762C5.56562 14.6762 3.0724 12.2057 3.0724 9.16841C3.0724 6.13108 5.56641 3.66062 8.63172 3.66062C9.48039 3.66062 10.1683 2.97897 10.1683 2.13805C10.1683 1.29712 9.48039 0.615479 8.63172 0.615479C3.87222 0.615479 0 4.45235 0 9.16841C0 13.8845 3.87222 17.7213 8.63172 17.7213C10.2526 17.7213 11.7703 17.2763 13.0674 16.5033L18.2547 21.6433C18.555 21.9408 18.9482 22.0892 19.3414 22.0892C19.7346 22.0892 20.1278 21.9408 20.428 21.6433C21.0285 21.0491 21.0285 20.0848 20.428 19.4899H20.4272Z" fill="#323C48"/>
</svg>
