<svg width="330" height="34" viewBox="0 0 330 34" fill="none" xmlns="http://www.w3.org/2000/svg">
<path d="M64.2628 0.577634H45.9194C45.5303 0.509191 45.1301 0.528746 44.7508 0.637521C44.3716 0.746296 44.022 0.938179 43.7317 1.20095C43.4414 1.46372 43.2166 1.78882 43.0757 2.15059C42.9349 2.51235 42.8818 2.90223 42.9201 3.28844V31.1995C42.9201 32.9142 43.8923 33.7832 45.8095 33.7832H46.6779C48.5593 33.7832 49.5142 32.9142 49.5142 31.1995V19.7647H58.8903C62.4246 19.7647 63.6797 17.9168 63.6797 16.3341C63.6797 14.9567 62.7618 14.2576 60.9521 14.2576H49.5155V6.08481H62.1467C65.6772 6.08481 66.936 4.31263 66.936 2.65413C66.936 1.27672 66.0367 0.577634 64.264 0.577634H64.2628Z" fill="white"/>
<path d="M95.8586 0.577634H77.5153C77.1262 0.509191 76.726 0.528746 76.3467 0.637521C75.9675 0.746296 75.6179 0.938179 75.3276 1.20095C75.0373 1.46372 74.8124 1.78882 74.6716 2.15059C74.5308 2.51235 74.4777 2.90223 74.516 3.28844V31.1995C74.516 32.9142 75.4882 33.7832 77.4054 33.7832H78.2738C80.1552 33.7832 81.1101 32.9142 81.1101 31.1995V19.7647H90.4862C94.0205 19.7647 95.2756 17.9168 95.2756 16.3341C95.2756 14.9567 94.3577 14.2576 92.548 14.2576H81.1113V6.08481H93.7425C97.2731 6.08481 98.5319 4.31263 98.5319 2.65413C98.5319 1.27672 97.6338 0.577634 95.8599 0.577634H95.8586Z" fill="white"/>
<path d="M125.322 6.08481C128.853 6.08481 130.112 4.31264 130.112 2.65413C130.112 1.27673 129.214 0.577637 127.437 0.577637H109.04C108.161 0.577637 105.824 0.577637 105.824 3.41678V31.1995C105.804 31.5759 105.872 31.9512 106.022 32.2983C106.171 32.6454 106.398 32.9546 106.687 33.2027C106.975 33.4508 107.317 33.6329 107.688 33.7331C108.059 33.8333 108.447 33.8504 108.823 33.7832H126.895C127.259 33.848 127.635 33.8309 127.992 33.7331C128.349 33.6353 128.679 33.4593 128.957 33.2198C129.235 32.979 129.453 32.6808 129.598 32.3447C129.741 32.0098 129.805 31.6468 129.786 31.2838V30.7754C129.786 29.1169 128.813 28.276 126.896 28.276H112.419V19.2991H122.175C125.709 19.2991 126.964 17.4744 126.964 15.91C126.964 14.5326 126.066 13.8335 124.292 13.8335H112.419V6.08481H125.322Z" fill="white"/>
<path d="M157.992 20.7718C164.215 18.7369 165.544 14.3627 165.544 10.9968C165.544 4.37497 159.942 0.577634 150.173 0.577634H141.925C141.536 0.509191 141.136 0.528746 140.756 0.637521C140.377 0.746296 140.028 0.938179 139.737 1.20095C139.447 1.46372 139.222 1.78882 139.081 2.15059C138.941 2.51235 138.887 2.90223 138.926 3.28844V31.1995C138.926 32.9142 139.898 33.7832 141.815 33.7832H142.684C144.565 33.7832 145.52 32.9142 145.52 31.1995V21.84H150.173C150.423 21.84 150.686 21.84 150.949 21.8339L159.931 32.4853C160.344 32.9839 160.884 33.3664 161.495 33.5938C162.107 33.8223 162.769 33.8871 163.415 33.7832H164.173C164.641 33.8663 165.124 33.7967 165.548 33.5828C165.972 33.3701 166.312 33.0267 166.517 32.605C166.722 32.1834 166.779 31.7079 166.681 31.2508C166.582 30.7937 166.334 30.3819 165.973 30.0775L157.99 20.7718H157.992ZM150.173 16.4172H145.52V6.00048H150.173C155.855 6.00048 158.734 7.6822 158.734 10.9968C158.734 12.4793 158.734 16.4172 150.173 16.4172Z" fill="white"/>
<path d="M198.235 0.543396H178.886C176.32 0.600839 175.411 1.50892 175.411 4.01318V30.311C175.411 32.9142 176.816 33.4373 179.081 33.4373H180.725C182.992 33.4373 184.398 32.9142 184.398 30.311V20.8879H191.155C196.078 20.8879 198.283 18.4998 198.283 16.1336C198.283 14.0339 196.447 14.0339 195.107 14.0339H184.398V7.39742H194.283C199.206 7.39742 201.41 5.00926 201.41 2.64311C201.41 0.543396 199.574 0.543396 198.234 0.543396H198.235Z" fill="white"/>
<path d="M211.953 0.543396H211.183C208.4 0.543396 207.076 1.06283 207.076 4.01318V30.311C207.076 32.9142 208.479 33.4373 210.745 33.4373H212.392C214.658 33.4373 216.064 32.9142 216.064 30.311V4.01318C216.064 1.06283 214.739 0.543396 211.953 0.543396Z" fill="white"/>
<path d="M248.93 20.5738C251.007 20.0116 252.831 18.7845 254.115 17.0869C255.398 15.3893 256.066 13.3214 256.013 11.2082C256.013 4.43117 249.995 0.542175 239.502 0.542175H230.773C227.99 0.542175 226.666 1.0616 226.666 4.01196V30.311C226.666 32.9142 228.069 33.4373 230.335 33.4373H231.981C234.248 33.4373 235.653 32.9142 235.653 30.311V21.9598H239.586L247.416 31.5307C248.8 33.2736 249.929 33.4373 252.563 33.4373H254.101C256.722 33.4373 257.112 32.2041 257.112 31.4672C257.039 30.6727 256.705 29.9235 256.162 29.3296L248.93 20.5726V20.5738ZM239.502 15.3209H235.653V7.18354H239.502C246.589 7.18354 246.589 10.2133 246.589 11.2094C246.589 13.9386 244.204 15.3209 239.502 15.3209Z" fill="white"/>
<path d="M281.926 13.5206C281.291 13.358 280.646 13.2065 280.002 13.0574C276.037 12.131 273.628 11.4306 273.628 9.53869C273.628 8.88116 273.628 6.88411 279.561 6.88411C282.614 6.856 285.649 7.34609 288.532 8.3324C288.934 8.49617 289.37 8.56461 289.804 8.53406C290.239 8.50228 290.659 8.37151 291.032 8.15151C291.323 7.89852 291.549 7.58197 291.691 7.22754C291.833 6.87311 291.888 6.49056 291.851 6.11168C291.875 5.25493 291.649 4.40918 291.202 3.67342C290.754 2.93767 290.103 2.34124 289.324 1.95381C286.191 0.510404 282.743 -0.150799 279.287 0.0288622C266.448 0.0288622 264.531 6.14713 264.531 9.79413C264.531 16.2289 271.089 18.479 276.022 19.612L276.372 19.6926C280.756 20.7058 283.63 21.554 283.63 24.013C283.63 26.0883 281.321 27.1394 276.764 27.1394C273.425 27.1321 270.117 26.499 267.019 25.2756C265.907 24.9175 264.862 24.5765 263.965 25.2108C263.66 25.476 263.423 25.8084 263.273 26.1812C263.124 26.554 263.066 26.9548 263.103 27.3533C263.103 29.8184 264.473 31.4672 267.404 32.5366C270.579 33.5705 273.912 34.0619 277.256 33.9922C290.043 33.9922 292.725 28.4019 292.725 23.7124C292.725 17.016 286.946 14.744 281.926 13.5169V13.5206Z" fill="white"/>
<path d="M325.825 0.543396H300.522C298.879 0.543396 297.129 0.765834 297.129 3.41431V4.52772C297.129 7.1762 298.879 7.39742 300.522 7.39742H308.707V30.311C308.707 32.9142 310.113 33.4373 312.379 33.4373H314.027C316.292 33.4373 317.696 32.9142 317.696 30.311V7.39742H322.04C326.847 7.39742 329.001 5.03126 329.001 2.68589C329.001 0.543396 327.167 0.543396 325.825 0.543396Z" fill="white"/>
<path d="M22.6039 27.8299H6.45333C6.40268 27.8299 6.35327 27.8201 6.30633 27.8018C6.25938 27.7834 6.21738 27.7553 6.18156 27.7199C6.14573 27.6844 6.11732 27.6429 6.09879 27.5977C6.07903 27.5524 6.06914 27.5036 6.07038 27.4534V6.9085C6.07038 6.85961 6.08026 6.81072 6.09879 6.7655C6.11732 6.72028 6.14573 6.67873 6.18156 6.6445C6.21738 6.61028 6.25938 6.58217 6.30509 6.56384C6.3508 6.54551 6.40145 6.53573 6.45086 6.53573H14.9449L15.2488 6.38907L18.7967 1.84253C18.8869 1.72643 18.9437 1.5871 18.9573 1.44166C18.9721 1.29622 18.9449 1.14955 18.8782 1.01878C18.8127 0.886784 18.7102 0.776788 18.583 0.69979C18.4557 0.622792 18.31 0.581238 18.1605 0.581238H3.52438C3.06113 0.581238 2.60283 0.670457 2.1754 0.844008C1.74798 1.01756 1.35886 1.27177 1.03273 1.59321C0.70537 1.91464 0.445952 2.29596 0.269301 2.71517C0.0914139 3.13438 0 3.58415 0 4.03758V30.306C0 31.2276 0.373068 32.1124 1.03767 32.7651C1.70228 33.4177 2.60406 33.7831 3.54414 33.7831H22.4137C22.8078 33.7831 23.1846 33.6292 23.4637 33.3566C23.7429 33.0841 23.8986 32.7125 23.8986 32.3263V29.0985C23.8986 28.9323 23.8652 28.7673 23.7997 28.6121C23.7343 28.4581 23.6392 28.3188 23.5193 28.2002C23.3995 28.0816 23.2562 27.9888 23.0993 27.9252C22.9424 27.8617 22.7744 27.8287 22.6039 27.8287V27.8299Z" fill="white"/>
<path d="M30.2061 0.580078H25.6663C25.3501 0.580078 25.0388 0.652187 24.7546 0.789072C24.4718 0.925957 24.2235 1.1264 24.032 1.37205L21.3032 4.87362C21.1846 5.02639 21.1104 5.20972 21.0919 5.4016C21.0734 5.59349 21.1092 5.78659 21.1957 5.95892C21.2822 6.13125 21.4168 6.27669 21.5836 6.37813C21.7503 6.47957 21.9431 6.53335 22.1395 6.53457H27.3328C27.3908 6.53457 27.4489 6.54557 27.5032 6.56757C27.5576 6.58957 27.6058 6.62135 27.6478 6.66168C27.6885 6.70201 27.7219 6.74967 27.7441 6.80345C27.7664 6.856 27.7775 6.91345 27.7775 6.96967V27.8299H27.7676V32.4498C27.7676 32.803 27.9121 33.1428 28.1678 33.3921C28.4223 33.6427 28.7682 33.7832 29.1289 33.7844H30.5063C31.392 33.7844 32.2419 33.4398 32.8683 32.825C33.4946 32.2103 33.8466 31.3767 33.8479 30.5078V4.15375C33.8479 3.20656 33.4637 2.29847 32.7805 1.62749C32.0974 0.957734 31.1709 0.5813 30.2061 0.5813V0.580078Z" fill="white"/>
<path d="M16.8399 11.4306L13.9332 15.8391C13.6936 16.2008 13.5663 16.6225 13.5676 17.0551L13.5713 17.1053C13.5787 17.2947 13.6108 17.4829 13.6676 17.665C13.7553 18.0769 13.9641 18.4545 14.2692 18.7491L19.1636 23.3335C19.3785 23.5352 19.6305 23.6941 19.9072 23.8004C20.184 23.9067 20.4792 23.9581 20.7769 23.9519C21.0746 23.9458 21.3674 23.8823 21.6392 23.7637C21.9109 23.6464 22.1568 23.4765 22.3618 23.2663C22.5669 23.0549 22.7275 22.8068 22.835 22.5342C22.9424 22.2617 22.9931 21.972 22.9857 21.6799C22.9783 21.3878 22.9115 21.1018 22.7917 20.8354C22.6707 20.5689 22.4977 20.3282 22.2815 20.1277L18.6966 16.7728L20.6336 13.8383C20.7942 13.5939 20.9041 13.3201 20.9573 13.0342C21.0104 12.7482 21.0054 12.4536 20.9424 12.1688C20.8794 11.8841 20.7608 11.6152 20.5916 11.3756C20.4224 11.1361 20.2074 10.932 19.9579 10.7743C19.7096 10.6167 19.4304 10.5079 19.1389 10.4553C18.8473 10.4028 18.5484 10.4077 18.2581 10.4688C17.9678 10.5299 17.6935 10.646 17.4502 10.811C17.2068 10.976 16.9981 11.1874 16.8375 11.4306H16.8399Z" fill="white"/>
</svg>
