<svg width="233" height="233" viewBox="0 0 233 233" fill="none" xmlns="http://www.w3.org/2000/svg">
<g style="mix-blend-mode:multiply" opacity="0.49">
<path d="M154.934 190.404H44.2328C43.8857 190.404 43.547 190.336 43.2252 190.208C42.9035 190.08 42.6156 189.883 42.3701 189.636C42.1245 189.388 41.9298 189.098 41.8027 188.782C41.6673 188.466 41.5995 188.124 41.608 187.774V44.2189C41.608 43.8774 41.6757 43.5358 41.8027 43.2198C41.9298 42.9038 42.1245 42.6135 42.3701 42.3743C42.6156 42.1352 42.9035 41.9388 43.2168 41.8107C43.5301 41.6826 43.8772 41.6143 44.2159 41.6143H102.437L104.52 40.5895L128.837 8.82124C129.456 8.00996 129.845 7.03641 129.938 6.02017C130.04 5.00393 129.854 3.97915 129.396 3.06538C128.948 2.14308 128.245 1.37449 127.373 0.836479C126.501 0.298468 125.501 0.00811269 124.477 0.00811269H24.157C20.9818 -0.00042717 17.8405 0.622982 14.9108 1.84418C11.9811 3.05684 9.31396 4.83313 7.07861 7.07911C4.83479 9.3251 3.05667 11.9895 1.84586 14.9187C0.626576 17.8479 0 20.9905 0 24.1588V207.706C0 214.145 2.55711 220.328 7.11248 224.888C11.6679 229.448 17.8489 232.002 24.2925 232.002H153.63C156.331 232.002 158.913 230.926 160.827 229.021C162.74 227.117 163.807 224.521 163.807 221.822V199.269C163.807 198.107 163.579 196.954 163.13 195.87C162.681 194.794 162.029 193.82 161.208 192.992C160.386 192.163 159.404 191.514 158.329 191.07C157.254 190.626 156.102 190.396 154.934 190.396V190.404Z" fill="#323C48"/>
<path d="M207.041 0H175.924C173.756 0 171.622 0.503852 169.675 1.46032C167.736 2.41678 166.034 3.81732 164.722 5.53383L146.018 30.0005C145.205 31.068 144.697 32.349 144.57 33.6897C144.443 35.0305 144.688 36.3798 145.281 37.5839C145.874 38.788 146.797 39.8043 147.94 40.5131C149.083 41.2219 150.404 41.5976 151.75 41.6062H187.346C187.744 41.6062 188.142 41.683 188.515 41.8368C188.887 41.9905 189.217 42.2125 189.505 42.4943C189.785 42.7761 190.013 43.1092 190.166 43.4849C190.318 43.8522 190.394 44.2535 190.394 44.6464V190.405H190.327V222.685C190.327 225.153 191.317 227.527 193.07 229.27C194.814 231.02 197.185 232.002 199.658 232.011H209.098C215.169 232.011 220.995 229.603 225.288 225.307C229.581 221.011 231.994 215.187 232.002 209.115V24.962C232.002 18.3436 229.369 11.9985 224.687 7.31012C220.004 2.63028 213.654 0 207.041 0Z" fill="#323C48"/>
<path d="M115.425 75.8082L95.502 106.611C93.8593 109.139 92.9872 112.086 92.9957 115.109L93.0211 115.459C93.0719 116.782 93.292 118.098 93.6815 119.37C94.2827 122.248 95.7136 124.887 97.805 126.945L131.352 158.978C132.826 160.387 134.553 161.497 136.45 162.24C138.346 162.983 140.37 163.342 142.41 163.299C144.451 163.256 146.458 162.812 148.321 161.984C150.183 161.164 151.868 159.977 153.274 158.508C154.679 157.031 155.78 155.297 156.517 153.393C157.254 151.488 157.601 149.464 157.55 147.423C157.499 145.382 157.042 143.384 156.22 141.522C155.391 139.661 154.205 137.978 152.724 136.578L128.152 113.136L141.428 92.6317C142.529 90.9237 143.283 89.0108 143.647 87.0125C144.011 85.0142 143.977 82.9561 143.545 80.9663C143.113 78.9765 142.3 77.0977 141.14 75.4239C139.98 73.7501 138.507 72.3239 136.797 71.2223C135.095 70.1207 133.181 69.3606 131.183 68.9934C129.185 68.6262 127.136 68.6603 125.146 69.0873C123.156 69.5143 121.276 70.3256 119.608 71.4785C117.94 72.6314 116.509 74.1088 115.408 75.8082H115.425Z" fill="#323C48"/>
</g>
</svg>
